<?xml version="1.0" standalone="no"?>
<!DOCTYPE svg PUBLIC "-//W3C//DTD SVG 20010904//EN"
 "http://www.w3.org/TR/2001/REC-SVG-20010904/DTD/svg10.dtd">
<svg version="1.0" xmlns="http://www.w3.org/2000/svg"
 width="400.000000pt" height="400.000000pt" viewBox="0 0 400.000000 400.000000"
 preserveAspectRatio="xMidYMid meet">
<metadata>
Created by potrace 1.11, written by Peter Selinger 2001-2013
</metadata>
<g transform="translate(0.000000,400.000000) scale(0.100000,-0.100000)"
fill="#000000" stroke="none">
<path d="M1730 3854 c-430 -66 -808 -266 -1105 -587 -47 -51 -105 -119 -130
-152 -51 -69 -165 -257 -165 -273 0 -6 28 -32 63 -59 34 -26 69 -53 77 -60 8
-7 85 -66 170 -133 85 -66 188 -146 229 -178 41 -31 76 -56 79 -55 2 1 19 37
36 80 134 325 415 568 764 660 84 22 118 26 252 26 112 0 177 -4 235 -17 155
-34 329 -120 439 -217 l48 -42 270 270 270 270 -79 65 c-259 216 -567 353
-904 402 -133 20 -418 20 -549 0z"/>
<path d="M2008 1980 l2 -360 505 0 c278 0 505 -1 505 -3 0 -1 -9 -35 -20 -75
-106 -384 -429 -630 -880 -673 -487 -46 -949 231 -1136 683 l-36 86 -102 -79
c-96 -76 -137 -108 -286 -223 -151 -116 -196 -152 -214 -168 -18 -17 -17 -19
30 -103 368 -646 1077 -1007 1836 -935 908 86 1528 741 1587 1675 11 174 -2
430 -26 518 -4 16 -55 17 -886 17 l-882 0 3 -360z"/>
</g>
</svg>
